<svg width="53" height="38" viewBox="0 0 53 38" fill="none" xmlns="http://www.w3.org/2000/svg">
<path fill-rule="evenodd" clip-rule="evenodd" d="M9.9002 0.278883C1.9369 2.281 -2.24759 11.0416 1.23826 18.4124C2.60509 21.3025 4.39719 23.1513 7.1816 24.5443L9.55543 25.732L6.04543 31.2199C3.75525 34.8003 2.65409 36.8269 2.87775 37.0506C3.07656 37.2494 5.11403 37.3519 7.73148 37.2949L12.2429 37.1965L18.1099 28.096C21.3367 23.0907 24.2542 18.2079 24.593 17.2454C24.9867 16.1267 25.2073 14.4851 25.2034 12.6951C25.1989 10.3027 25.0414 9.56351 24.1222 7.61985C22.733 4.68143 20.6416 2.56766 17.8138 1.24424C15.3325 0.0832214 12.1984 -0.299 9.9002 0.278883ZM36.172 0.571848C32.4786 1.79482 29.9084 4.21555 28.1313 8.14488C27.0305 10.5796 27.0375 15.0049 28.1471 17.8411C29.2342 20.6199 31.5549 23.0795 34.4621 24.5338L36.8451 25.726L33.3848 31.0876C31.4817 34.0365 29.9805 36.6172 30.0491 36.8227C30.1289 37.0628 31.8457 37.1965 34.8496 37.1965H39.5259L44.7111 29.1461C47.563 24.7183 50.478 19.9384 51.1889 18.524C52.3719 16.1701 52.4797 15.7109 52.4619 13.0987C52.4353 9.28769 51.493 6.8554 48.9978 4.16025C45.6197 0.511645 40.598 -0.893334 36.172 0.571848ZM10.4056 8.44344C9.05945 9.19038 8.24391 10.7753 8.24146 12.6489C8.23936 14.1628 8.39057 14.504 9.59778 15.7116C10.7812 16.8947 11.1641 17.0704 12.561 17.0704C13.8537 17.0704 14.4036 16.8611 15.3938 15.9916C17.2954 14.3217 17.6118 12.1911 16.3175 9.77247C15.4585 8.16728 12.2166 7.43853 10.4056 8.44344ZM37.431 8.63385C36.2017 9.3836 35.0502 11.8281 35.3771 12.9944C36.1846 15.8754 37.5651 17.0704 40.0859 17.0704C41.347 17.0704 41.78 16.8635 42.9323 15.7116C44.1262 14.5173 44.291 14.1526 44.291 12.7028C44.291 10.7987 43.5595 9.35909 42.1769 8.5425C40.8846 7.77911 38.766 7.81971 37.431 8.63385Z" fill="#D4D4D4"/>
</svg>
